<svg width="26" height="26" viewBox="0 0 26 26" fill="none" xmlns="http://www.w3.org/2000/svg">
<path d="M13 0.65625C6.04297 0.65625 0.40625 6.29297 0.40625 13.25C0.40625 20.207 6.04297 25.8438 13 25.8438C19.957 25.8438 25.5938 20.207 25.5938 13.25C25.5938 6.29297 19.957 0.65625 13 0.65625ZM19.5 22.0859C17.6719 23.457 15.3867 24.2188 13 24.2188C10.5625 24.2188 8.27734 23.457 6.5 22.0859V21.375C6.5 19.5977 7.92188 18.125 9.75 18.125C10.3086 18.125 11.1211 18.7344 13 18.7344C14.8281 18.7344 15.6406 18.125 16.25 18.125C18.0273 18.125 19.5 19.5977 19.5 21.375V22.0859ZM21.0234 20.7148C20.668 18.3281 18.6875 16.5 16.25 16.5C15.1836 16.5 14.6758 17.1094 13 17.1094C11.2734 17.1094 10.7656 16.5 9.75 16.5C7.26172 16.5 5.28125 18.3281 4.92578 20.7148C3.09766 18.7344 2.03125 16.1445 2.03125 13.25C2.03125 7.20703 6.90625 2.28125 13 2.28125C19.043 2.28125 23.9688 7.20703 23.9688 13.25C23.9688 16.1445 22.8516 18.7344 21.0234 20.7148ZM13 6.34375C10.5117 6.34375 8.53125 8.375 8.53125 10.8125C8.53125 13.3008 10.5117 15.2812 13 15.2812C15.4375 15.2812 17.4688 13.3008 17.4688 10.8125C17.4688 8.375 15.4375 6.34375 13 6.34375ZM13 13.6562C11.4258 13.6562 10.1562 12.3867 10.1562 10.8125C10.1562 9.28906 11.4258 7.96875 13 7.96875C14.5234 7.96875 15.8438 9.28906 15.8438 10.8125C15.8438 12.3867 14.5234 13.6562 13 13.6562Z" fill="#B8C0C2"/>
</svg>
