<svg width="20" height="16" viewBox="0 0 20 16" fill="none" xmlns="http://www.w3.org/2000/svg">
<path d="M2.5 1C1.65625 1 1 1.6875 1 2.5V5.5C1 5.78125 0.75 6 0.5 6C0.21875 6 0 5.78125 0 5.5V2.5C0 1.125 1.09375 0 2.5 0H17.5C18.875 0 20 1.125 20 2.5V5.5C20 5.78125 19.75 6 19.5 6C19.2188 6 19 5.78125 19 5.5V2.5C19 1.6875 18.3125 1 17.5 1H2.5ZM15.5 3C15.75 3 16 3.25 16 3.5V14.25C16 15.2188 15.1875 16 14.25 16H5.75C4.78125 16 4 15.2188 4 14.25V3.5C4 3.25 4.21875 3 4.5 3C4.75 3 5 3.25 5 3.5V14.25C5 14.6875 5.3125 15 5.75 15H14.25C14.6562 15 15 14.6875 15 14.25V3.5C15 3.25 15.2188 3 15.5 3ZM10 11.5C8.125 11.5 6.5 10.25 6.5 8.5C6.5 6.78125 8.125 5.5 10 5.5C11.8438 5.5 13.5 6.78125 13.5 8.5C13.5 10.25 11.8438 11.5 10 11.5ZM7.5 8.5C7.5 9.53125 8.5 10.5 10 10.5C11.4688 10.5 12.5 9.53125 12.5 8.5C12.5 7.5 11.4688 6.5 10 6.5C8.5 6.5 7.5 7.5 7.5 8.5Z" fill="#00A3C9"/>
</svg>
