<svg width="40" height="40" viewBox="0 0 40 40" fill="none" xmlns="http://www.w3.org/2000/svg">
<rect width="40" height="40" rx="8" fill="#F5F7F7"/>
<path d="M20.5625 12.9375V14.6602C24.0078 14.9414 26.75 17.8594 26.75 21.375V27.5625C26.75 27.8789 26.4688 28.125 26.1875 28.125C25.8711 28.125 25.625 27.8789 25.625 27.5625V21.375C25.625 18.457 23.375 16.0664 20.5625 15.7852V27.5625C20.5625 27.8789 20.2812 28.125 20 28.125C19.6836 28.125 19.4375 27.8789 19.4375 27.5625V15.7852C16.5898 16.0664 14.375 18.457 14.375 21.375V27.5625C14.375 27.8789 14.0938 28.125 13.8125 28.125C13.4961 28.125 13.25 27.8789 13.25 27.5625V21.375C13.25 17.8594 15.957 14.9414 19.4375 14.6602V12.9375C19.4375 12.6562 19.6836 12.375 20 12.375C20.2812 12.375 20.5625 12.6562 20.5625 12.9375Z" fill="#00A3C9"/>
</svg>
