<svg width="36" height="36" viewBox="0 0 36 36" fill="none" xmlns="http://www.w3.org/2000/svg">
<rect width="36" height="36" rx="10" fill="#FFD525"/>
<g clip-path="url(#clip0_3894_24537)">
<path d="M16.3 13.62C19.21 12.93 18.3 8.25 15.3 8.25C14.11 8.25 14.01 8.35 13.76 9.77C13.6158 10.2559 13.6056 10.7717 13.7306 11.2628C13.8556 11.754 14.1111 12.2022 14.47 12.56C15.23 13.5 15.65 13.78 16.3 13.62Z" fill="#2D3567"/>
<path d="M15.65 20.0499C16.0056 19.4261 16.1867 18.7182 16.1744 18.0003C16.1621 17.2824 15.9568 16.5811 15.58 15.9699C15.02 14.7899 14.76 14.6499 13.5 14.6499C12.24 14.6499 12.01 14.7499 11.31 16.3699C10.61 17.9899 10.58 18.1099 11.31 19.7599C12.04 21.4099 12.13 21.4099 13.57 21.4099C15.01 21.4099 15.13 21.2999 15.65 20.0499Z" fill="#2D3567"/>
<path d="M23.98 16.9001C23.86 17.6486 23.86 18.4115 23.98 19.1601C24.3 20.7601 25.24 19.9201 25.24 18.0301C25.24 16.1401 24.3 15.3001 23.98 16.9001Z" fill="#2D3567"/>
<path d="M23.52 14.77C24.71 15.23 24.58 12.17 23.37 11.08C22.76 10.5 22.68 10.5 22.46 11.1C22.14 11.95 22.88 14.5 23.52 14.77Z" fill="#2D3567"/>
<path d="M23.46 21.3101C22.83 21.5301 22.12 24.3101 22.52 25.0101C22.8 25.5101 22.92 25.5001 23.44 24.9101C24.61 23.5701 24.63 20.9101 23.46 21.3101Z" fill="#2D3567"/>
<path d="M16.3 22.4399C15.65 22.2799 15.23 22.4999 14.48 23.4999C14.1193 23.8566 13.8619 24.3044 13.7351 24.7956C13.6084 25.2868 13.617 25.8032 13.76 26.2899C14 27.7199 14.09 27.8099 15.33 27.8099C18.41 27.8099 19.25 23.1399 16.3 22.4399Z" fill="#2D3567"/>
<path d="M21.16 11.61C22.5 10.89 20.98 7.5 19.33 7.5C18.45 7.5 18.41 7.59 18.65 8.91C19 10.81 20.21 12.11 21.16 11.61Z" fill="#2D3567"/>
<path d="M19.68 24.9099C19.1806 25.5278 18.8622 26.272 18.76 27.0599C18.65 28.1699 18.76 28.3899 19.45 28.4899C20.35 28.6199 21.2 27.5799 21.6 25.8499C21.98 24.3499 20.76 23.7599 19.68 24.9099Z" fill="#2D3567"/>
</g>
<defs>
<clipPath id="clip0_3894_24537">
<rect width="14.48" height="21" fill="white" transform="translate(10.76 7.5)"/>
</clipPath>
</defs>
</svg>
