<svg width="18" height="15" viewBox="0 0 18 15" fill="none" xmlns="http://www.w3.org/2000/svg">
<path d="M16.5 0.96875L1.5 0.96875C0.65625 0.96875 0 1.65625 0 2.46875L0 13.4688C0 14.3125 0.65625 14.9688 1.5 14.9688L16.5 14.9687C17.3125 14.9687 18 14.3125 18 13.4687V2.46875C18 1.65625 17.3125 0.96875 16.5 0.96875ZM17 13.4687C17 13.75 16.75 13.9687 16.5 13.9687L1.5 13.9688C1.21875 13.9688 1 13.75 1 13.4688L1 2.46875C1 2.21875 1.21875 1.96875 1.5 1.96875L16.5 1.96875C16.75 1.96875 17 2.21875 17 2.46875V13.4687ZM6 11.3438C6 11.1562 5.8125 10.9688 5.625 10.9688H3.375C3.15625 10.9688 3 11.1562 3 11.3438V11.5938C3 11.8125 3.15625 11.9688 3.375 11.9688H5.625C5.8125 11.9688 6 11.8125 6 11.5938V11.3438ZM12 11.3437C12 11.1562 11.8125 10.9687 11.625 10.9687H7.375C7.15625 10.9688 7 11.1562 7 11.3438V11.5938C7 11.8125 7.15625 11.9688 7.375 11.9687H11.625C11.8125 11.9687 12 11.8125 12 11.5937V11.3437Z" fill="#2D3940"/>
</svg>
