<svg width="81" height="80" viewBox="0 0 81 80" fill="none" xmlns="http://www.w3.org/2000/svg">
<path d="M37.2188 51.875C36.2813 52.8125 34.5625 52.8125 33.625 51.875L24.875 43.125C23.9375 42.1875 23.9375 40.4688 24.875 39.5312C25.8125 38.5938 27.5313 38.5938 28.4688 39.5312L35.5 46.5625L51.125 30.7812C52.0625 29.8437 53.7813 29.8437 54.7188 30.7812C55.6563 31.7187 55.6563 33.4375 54.7188 34.375L37.2188 51.875ZM54.0938 7.1875C59.25 6.25 64.7188 7.8125 68.7812 11.7187C72.6875 15.7812 74.25 21.25 73.3125 26.4062C77.5312 29.375 80.5 34.375 80.5 40C80.5 45.7812 77.5312 50.625 73.3125 53.75C74.25 58.9062 72.6875 64.375 68.7813 68.2812C64.7188 72.3437 59.25 73.9062 54.0938 72.9688C51.125 77.1875 46.125 80 40.5 80C34.7188 80 29.7188 77.1875 26.75 72.9688C21.5938 73.9062 16.125 72.3438 12.0625 68.2812C8.15625 64.375 6.59375 58.9062 7.53125 53.75C3.3125 50.625 0.5 45.7812 0.5 40C0.5 34.375 3.3125 29.375 7.53125 26.4062C6.59375 21.25 8.15625 15.7812 12.0625 11.7187C16.125 7.8125 21.5938 6.25 26.75 7.1875C29.7188 2.96875 34.7188 0 40.3438 0C46.125 0 51.125 2.96875 54.0938 7.1875ZM29.25 13.125L27.2188 12.5C23.3125 11.25 18.7812 12.1875 15.6563 15.3125C12.5313 18.4375 11.5938 22.9688 12.8438 26.875L13.4688 28.9062L11.5938 29.8438C7.84375 31.7188 5.5 35.625 5.5 40C5.5 44.5312 7.84375 48.2812 11.5938 50.3125L13.4688 51.25L12.8438 53.2812C11.5938 57.1875 12.5313 61.7188 15.6563 64.8438C18.7813 67.9688 23.3125 68.9062 27.2188 67.6562L29.25 67.0312L30.1875 68.9062C32.2188 72.6562 35.9688 75 40.5 75C44.875 75 48.625 72.6562 50.6563 68.9062L51.5938 67.0312L53.625 67.6562C57.5313 68.9062 62.0625 67.9687 65.1875 64.8437C68.3125 61.7187 69.25 57.1875 68 53.2812L67.375 51.25L69.25 50.3125C73 48.2812 75.5 44.5312 75.5 40C75.5 35.625 73 31.7187 69.25 29.8437L67.375 28.9062L68 26.875C69.25 22.9687 68.3125 18.4375 65.1875 15.3125C62.0625 12.1875 57.5312 11.25 53.625 12.5L51.5938 13.125L50.6562 11.25C48.625 7.5 44.875 5 40.5 5C35.9688 5 32.2188 7.5 30.1875 11.25L29.25 13.125Z" fill="#7BD389"/>
</svg>
