<svg width="23" height="24" viewBox="0 0 23 24" fill="none" xmlns="http://www.w3.org/2000/svg">
<path d="M11.75 13.5H8.75C6.64062 13.5 5 15.1875 5 17.25C5 17.6719 5.32812 18 5.75 18C6.125 18 6.5 17.6719 6.5 17.25C6.5 16.0312 7.48438 15 8.75 15H11.75C12.9688 15 14 16.0312 14 17.25C14 17.6719 14.3281 18 14.75 18C15.125 18 15.5 17.6719 15.5 17.25C15.5 15.1875 13.8125 13.5 11.75 13.5ZM22.25 9H21.5V13.5H22.25C22.625 13.5 23 13.1719 23 12.75V9.75C23 9.375 22.625 9 22.25 9ZM10.25 12C11.8906 12 13.25 10.6875 13.25 9C13.25 7.35938 11.8906 6 10.25 6C8.5625 6 7.25 7.35938 7.25 9C7.25 10.6875 8.5625 12 10.25 12ZM10.25 7.5C11.0469 7.5 11.75 8.20312 11.75 9C11.75 9.84375 11.0469 10.5 10.25 10.5C9.40625 10.5 8.75 9.84375 8.75 9C8.75 8.20312 9.40625 7.5 10.25 7.5ZM22.25 15H21.5V19.5H22.25C22.625 19.5 23 19.1719 23 18.75V15.75C23 15.375 22.625 15 22.25 15ZM22.25 3H21.5V7.5H22.25C22.625 7.5 23 7.17188 23 6.75V3.75C23 3.375 22.625 3 22.25 3ZM17 0H3.5C1.8125 0 0.5 1.35938 0.5 3V21C0.5 22.6875 1.8125 24 3.5 24H17C18.6406 24 20 22.6875 20 21V3C20 1.35938 18.6406 0 17 0ZM18.5 21C18.5 21.8438 17.7969 22.5 17 22.5H3.5C2.65625 22.5 2 21.8438 2 21V3C2 2.20312 2.65625 1.5 3.5 1.5H17C17.7969 1.5 18.5 2.20312 18.5 3V21Z" fill="#00A3C9"/>
</svg>
