<svg width="18" height="16" viewBox="0 0 18 16" fill="none" xmlns="http://www.w3.org/2000/svg">
<path d="M11.4375 3.8125L12.8125 1.5625C13.25 0.90625 12.7812 0 12 0L6 0C5.1875 0 4.71875 0.90625 5.15625 1.5625L6.53125 3.8125C0.6875 7.53125 1 12.2812 1 12.875C1 14.625 2.53125 16 4.40625 16L13.5625 16C15.4375 16 16.9688 14.625 16.9688 12.875C16.9688 12.2812 17.25 7.5 11.4375 3.8125ZM6 1L12 1L10.4375 3.5L7.53125 3.5L6 1ZM16 12.875C16 14.0625 14.9063 15 13.5625 15L4.40625 15C3.0625 15 2 14.0625 2 12.875V12.7812C1.96875 10.9062 2.625 7.375 7.25 4.5H10.7188C15.3438 7.375 16 10.9062 16 12.7812V12.875Z" fill="#2D3940"/>
</svg>
