<svg width="18" height="18" viewBox="0 0 18 18" fill="none" xmlns="http://www.w3.org/2000/svg">
<path d="M16.4688 2.87506C17.125 3.56256 17.125 4.65631 16.4688 5.34381L6.6875 15.1251C6.3125 15.4688 5.875 15.7501 5.40625 15.8751L1.625 17.0001C1.4375 17.0313 1.25 17.0001 1.125 16.8751C1 16.7501 0.9375 16.5626 1 16.3751L2.125 12.5938C2.25 12.1251 2.53125 11.6876 2.875 11.3126L12.6562 1.53131C13.3438 0.875061 14.4375 0.875061 15.125 1.53131L16.4688 2.87506ZM11.6562 3.96881L14.0312 6.34381L15.75 4.65631C16.0312 4.34381 16.0312 3.87506 15.75 3.59381L14.4062 2.25006C14.125 1.96881 13.6562 1.96881 13.3438 2.25006L11.6562 3.96881ZM10.9375 4.65631L3.59375 12.0313C3.34375 12.2501 3.15625 12.5626 3.0625 12.8751L2.21875 15.7813L5.125 14.9376C5.4375 14.8438 5.75 14.6563 5.96875 14.4063L13.3125 7.06256L10.9375 4.65631Z" fill="#00A3C9"/>
</svg>
