<svg width="33" height="33" viewBox="0 0 33 33" fill="none" xmlns="http://www.w3.org/2000/svg">
<path d="M17 11.625C15.1875 11.6875 13.6875 12.25 12.5 13.4375C11.4375 14.5 10.75 16.0625 10.8125 17.625C10.875 20.75 10.5625 23.9375 10 26.9375C9.875 27.5 10.25 28.0625 10.75 28.125C11.3125 28.1875 11.8125 27.875 11.9375 27.3125C12.625 24.125 12.875 20.8125 12.875 17.5625C12.8125 16.5625 13.1875 15.5625 13.9375 14.8125C15.0625 13.6875 16.5625 13.625 17 13.625C19.3125 13.6875 21.125 15.5625 21.125 17.8125C21.125 20.9375 21 24.0625 20.4375 27.125C20.3125 27.625 20.6875 28.125 21.25 28.25C21.3125 28.25 21.3125 28.25 21.375 28.25C21.875 28.25 22.3125 27.9375 22.375 27.4375C22.9375 24.3125 23.125 20.9375 23.125 17.6875C23.125 14.4375 20.375 11.6875 17 11.625ZM16.9375 17C16.4375 17.0625 16 17.5 16 18.0625C16.0625 22.625 15.5 27.0625 14.25 31.5L14.1875 31.75C14.0625 32.1875 14.25 33 15.125 33C15.5 33 15.9375 32.75 16.0625 32.3125L16.1875 32.0625C17.4375 27.4375 18.0625 22.8125 18 18C18 17.4375 17.5 17 16.9375 17ZM8 10.375C6.4375 12.3125 5.625 14.75 5.625 17.25C5.6875 19.75 5.5 22.25 5.0625 24.625C4.9375 25.1875 5.3125 25.6875 5.8125 25.8125C5.8125 25.8125 5.9375 25.8125 6 25.8125C6.5 25.8125 6.9375 25.4375 7 25C7.4375 22.4375 7.6875 19.875 7.625 17.25C7.625 15.1875 8.25 13.25 9.5625 11.625C9.9375 11.25 9.875 10.625 9.4375 10.25C9 9.875 8.375 9.9375 8 10.375ZM32.9375 16.8125C32.9375 15.8125 32.8125 14.75 32.625 13.75C32.5 13.25 31.9375 12.875 31.4375 13C30.875 13.125 30.5 13.625 30.625 14.1875C30.875 15 30.9375 16 30.9375 16.875C31 17.375 31 17.8125 31 18.3125C30.9375 18.875 31.375 19.3125 31.9375 19.3125C32.5 19.3125 32.875 18.875 33 18.3125C33 17.8125 33 17.3125 32.9375 16.8125ZM16.75 1.0625C12.375 0.9375 8.375 2.5625 5.375 5.5625C2.5 8.5 0.9375 12.3125 1 16.4375C1 16.875 1 17.375 1 17.8125C0.9375 18.375 1.375 18.875 1.9375 18.875H2C2.5 18.875 2.9375 18.4375 2.9375 17.875C2.9375 17.375 2.9375 16.875 2.9375 16.375C2.9375 12.8125 4.25 9.5 6.8125 7C9.375 4.375 12.9375 3 16.75 3.0625C21.375 3.125 25.75 5.4375 28.4375 9.25C28.75 9.6875 29.375 9.8125 29.875 9.5C30.3125 9.25 30.4375 8.5625 30.0625 8.0625C27.0625 3.75 22.0625 1.125 16.75 1.0625ZM16.8125 6.375C15.875 6.3125 14.9375 6.4375 14 6.625C13.5 6.75 13.1875 7.3125 13.25 7.875C13.375 8.375 13.9375 8.75 14.5 8.625C15.25 8.4375 16 8.3125 16.8125 8.375C22 8.5 26.25 12.625 26.3125 17.625C26.375 20.125 26.25 22.625 26 25.0625C25.9375 25.625 26.3125 26.125 26.8125 26.1875C26.8125 26.1875 26.875 26.1875 26.9375 26.1875C27.375 26.1875 27.8125 25.875 27.875 25.3125C28.1875 22.75 28.3125 20.1875 28.25 17.625C28.25 11.4375 23.0625 6.4375 16.8125 6.375Z" fill="#00A3C9"/>
</svg>
