<svg width="17" height="14" viewBox="0 0 17 14" fill="none" xmlns="http://www.w3.org/2000/svg">
<path d="M9 6.5C7.59375 6.5 6.5 7.625 6.5 9C6.5 10.4062 7.59375 11.5 9 11.5C10.375 11.5 11.5 10.4062 11.5 9C11.5 7.625 10.375 6.5 9 6.5ZM9 10.5C8.15625 10.5 7.5 9.84375 7.5 9C7.5 8.1875 8.15625 7.5 9 7.5C9.8125 7.5 10.5 8.1875 10.5 9C10.5 9.84375 9.8125 10.5 9 10.5ZM16.625 2.71875C14.4688 1 11.75 0 9 0C6.21875 0 3.5 1 1.34375 2.71875C1.125 2.90625 0.96875 3.1875 1 3.5V5.5C1 5.78125 1.21875 6 1.5 6H3.5C3.75 6 4 5.78125 4 5.5C4 5.25 3.75 5 3.5 5H2L1.96875 3.5C3.96875 1.90625 6.4375 1.03125 9 1C11.5312 1.03125 14 1.90625 15.9688 3.5V5H14.5C14.2188 5 14 5.25 14 5.5C14 5.78125 14.2188 6 14.5 6H16.4688C16.7188 6 16.9688 5.78125 16.9688 5.5V3.5C17 3.1875 16.8438 2.90625 16.625 2.71875ZM12.5625 5.03125C12.2188 4.4375 11.625 4.09375 10.9688 4.03125C10.9688 4.03125 11 4.03125 11 4V3C11 2.75 10.75 2.5 10.5 2.5C10.2188 2.5 10 2.75 10 3V4H8V3C8 2.75 7.75 2.5 7.5 2.5C7.21875 2.5 7 2.75 7 3V4C7 4.03125 7 4.03125 7 4.03125C6.34375 4.09375 5.75 4.4375 5.40625 5.03125L2.25 10.5625C2.0625 10.875 1.96875 11.1875 1.96875 11.5625V12C1.96875 13.125 2.875 14 3.96875 14H13.9688C15.0625 14 15.9688 13.125 15.9688 12V11.5625C15.9688 11.1875 15.875 10.8438 15.6875 10.5625L12.5625 5.03125ZM14.9688 12C14.9688 12.5625 14.5 13 13.9688 13H4C3.4375 13 3 12.5625 3 12V11.5312C3 11.375 3.03125 11.1875 3.125 11.0625L6.28125 5.5625C6.46875 5.21875 6.78125 5 7.15625 5H10.8125C11.1875 5 11.5 5.21875 11.6875 5.53125L14.8438 11.0625C14.9375 11.1875 15 11.375 15 11.5312V12H14.9688Z" fill="#00A3C9"/>
</svg>
