<svg width="21" height="19" viewBox="0 0 21 19" fill="none" xmlns="http://www.w3.org/2000/svg">
<path d="M9.9375 0.960938C10.2539 0.714844 10.7109 0.714844 11.0273 0.960938L20.3086 8.83594C20.6602 9.15234 20.6953 9.67969 20.4141 10.0312C20.0977 10.3828 19.5703 10.418 19.2188 10.1367L18.375 9.39844V15.9375C18.375 17.5195 17.1094 18.75 15.5625 18.75H5.4375C3.85547 18.75 2.625 17.5195 2.625 15.9375V9.39844L1.74609 10.1367C1.39453 10.418 0.867188 10.3828 0.550781 10.0312C0.269531 9.67969 0.304688 9.15234 0.65625 8.83594L9.9375 0.960938ZM4.3125 7.95703V15.9375C4.3125 16.5703 4.80469 17.0625 5.4375 17.0625H15.5625C16.1602 17.0625 16.6875 16.5703 16.6875 15.9375V7.95703L10.5 2.71875L4.3125 7.95703Z" fill="#00A3C9"/>
</svg>
