<svg width="17" height="13" viewBox="0 0 17 13" fill="none" xmlns="http://www.w3.org/2000/svg">
<path d="M0.625 0.5625C0.625 0.28125 0.871094 0 1.1875 0H15.8125C16.0938 0 16.375 0.28125 16.375 0.5625C16.375 0.878906 16.0938 1.125 15.8125 1.125H1.1875C0.871094 1.125 0.625 0.878906 0.625 0.5625ZM0.625 6.1875C0.625 5.90625 0.871094 5.625 1.1875 5.625H15.8125C16.0938 5.625 16.375 5.90625 16.375 6.1875C16.375 6.50391 16.0938 6.75 15.8125 6.75H1.1875C0.871094 6.75 0.625 6.50391 0.625 6.1875ZM15.8125 12.375H1.1875C0.871094 12.375 0.625 12.1289 0.625 11.8125C0.625 11.5312 0.871094 11.25 1.1875 11.25H15.8125C16.0938 11.25 16.375 11.5312 16.375 11.8125C16.375 12.1289 16.0938 12.375 15.8125 12.375Z" fill="#9EA4A6"/>
</svg>
