<svg width="18" height="12" viewBox="0 0 18 12" fill="none" xmlns="http://www.w3.org/2000/svg">
<path d="M12 6C12 7.65625 10.6562 9 9 9C7.3125 9 6 7.65625 6 6C6 4.34375 7.3125 3 9 3C10.6562 3 12 4.34375 12 6ZM9 4C7.875 4 7 4.90625 7 6C7 7.125 7.875 8 9 8C10.0938 8 11 7.125 11 6C11 4.90625 10.0938 4 9 4ZM0 2C0 0.90625 0.875 0 2 0H16C17.0938 0 18 0.90625 18 2V10C18 11.125 17.0938 12 16 12H2C0.875 12 0 11.125 0 10V2ZM1 2V10C1 10.5625 1.4375 11 2 11H16C16.5312 11 17 10.5625 17 10V2C17 1.46875 16.5312 1 16 1H2C1.4375 1 1 1.46875 1 2Z" fill="#2D3940"/>
</svg>
