<svg width="56" height="56" viewBox="0 0 56 56" fill="none" xmlns="http://www.w3.org/2000/svg">
<path d="M28 0.875C13.0156 0.875 0.875 13.0156 0.875 28C0.875 42.9844 13.0156 55.125 28 55.125C42.9844 55.125 55.125 42.9844 55.125 28C55.125 13.0156 42.9844 0.875 28 0.875ZM28 11.375C33.25 11.375 37.625 15.75 37.625 21C37.625 26.3594 33.25 30.625 28 30.625C22.6406 30.625 18.375 26.3594 18.375 21C18.375 15.75 22.6406 11.375 28 11.375ZM28 49C21.5469 49 15.75 46.1562 11.9219 41.5625C14 37.7344 18.0469 35 22.75 35C22.9688 35 23.1875 35.1094 23.5156 35.2188C24.9375 35.6562 26.3594 35.875 28 35.875C29.5312 35.875 31.0625 35.6562 32.375 35.2188C32.7031 35.1094 32.9219 35 33.25 35C37.8438 35 41.8906 37.7344 43.9688 41.5625C40.1406 46.1562 34.3438 49 28 49Z" fill="#D5DEE0"/>
</svg>
